# MagicaVoxel @ Ephtracy

# group
g TreeVoxel

# material
mtllib TreeVoxel.mtl
usemtl palette

# normals
vn -1 0 0
vn 1 0 0
vn 0 0 1
vn 0 0 -1
vn 0 -1 0
vn 0 1 0

# texcoords
vt 0.228516 0.5
vt 0.646484 0.5
vt 0.650391 0.5
vt 0.986328 0.5
vt 0.994141 0.5

# verts
v -6 10 1
v -6 10 -1
v -6 11 1
v -6 11 -1
v -5 8 5
v -5 8 4
v -5 8 -4
v -5 9 5
v -5 9 4
v -5 9 1
v -5 9 -0
v -5 10 4
v -5 10 3
v -5 10 1
v -5 10 -0
v -5 10 -1
v -5 10 -2
v -5 10 -3
v -5 11 4
v -5 11 3
v -5 11 2
v -5 11 1
v -5 11 -1
v -5 11 -2
v -5 11 -3
v -5 12 2
v -5 12 1
v -5 13 5
v -5 13 -4
v -4 7 4
v -4 7 -3
v -4 8 4
v -4 8 -3
v -4 11 -4
v -4 11 -5
v -4 12 -4
v -4 12 -5
v -4 13 4
v -4 13 -3
v -4 14 4
v -4 14 -3
v -3 3 1
v -3 3 -0
v -3 4 1
v -3 4 -0
v -2 0 2
v -2 0 -1
v -2 3 1
v -2 3 -0
v -2 4 1
v -2 4 -0
v -2 6 2
v -2 6 -1
v -2 7 2
v -2 7 -1
v -1 1 -1
v -1 1 -7
v -1 4 -1
v -1 4 -2
v -1 5 -2
v -1 5 -7
v -1 11 6
v -1 11 5
v -1 12 6
v -1 12 5
v 0 1 3
v 0 1 2
v 0 4 3
v 0 4 2
v 0 5 -4
v 0 5 -6
v 0 6 -4
v 0 6 -6
v 0 11 -4
v 0 11 -5
v 0 12 -4
v 0 12 -5
v -1 11 -4
v -1 11 -5
v -1 12 -4
v -1 12 -5
v 1 0 2
v 1 0 -1
v 1 1 2
v 1 1 -1
v 1 4 2
v 1 4 1
v 1 4 -0
v 1 4 -1
v 1 5 1
v 1 5 -0
v 1 6 2
v 1 6 -1
v 1 7 2
v 1 7 -1
v 1 11 6
v 1 11 5
v 1 12 6
v 1 12 5
v 2 4 1
v 2 4 -0
v 2 5 1
v 2 5 -0
v 2 5 -4
v 2 5 -6
v 2 6 -4
v 2 6 -6
v 3 1 3
v 3 1 -7
v 3 4 3
v 3 4 -2
v 3 5 -2
v 3 5 -7
v 3 7 4
v 3 7 -3
v 3 8 4
v 3 8 -3
v 3 11 -4
v 3 11 -5
v 3 12 -4
v 3 12 -5
v 3 13 4
v 3 13 -3
v 3 14 4
v 3 14 -3
v 4 8 5
v 4 8 -1
v 4 8 -3
v 4 8 -4
v 4 9 3
v 4 9 1
v 4 9 -1
v 4 9 -2
v 4 9 -3
v 4 10 3
v 4 10 1
v 4 10 -1
v 4 10 -2
v 4 11 5
v 4 11 4
v 4 11 2
v 4 11 -0
v 4 11 -1
v 4 11 -3
v 4 12 5
v 4 12 4
v 4 12 2
v 4 12 -0
v 4 12 -1
v 4 12 -3
v 4 13 5
v 4 13 -4
v 5 8 -1
v 5 8 -3
v 5 9 -1
v 5 9 -3
v 5 11 2
v 5 11 -0
v 5 12 2
v 5 12 -0
v -1 11 6
v -1 12 6
v 1 11 6
v 1 12 6
v -5 8 5
v -5 9 5
v -5 13 5
v -4 8 5
v -4 9 5
v -3 9 5
v -3 10 5
v -3 11 5
v -3 12 5
v -2 9 5
v -2 10 5
v -2 11 5
v -2 12 5
v -1 11 5
v -1 12 5
v 0 10 5
v 0 11 5
v 1 10 5
v 1 11 5
v 1 12 5
v 3 11 5
v 3 12 5
v 4 8 5
v 4 11 5
v 4 12 5
v 4 13 5
v -4 7 4
v -4 8 4
v -4 13 4
v -4 14 4
v 3 7 4
v 3 8 4
v 3 13 4
v 3 14 4
v 0 1 3
v 0 4 3
v 3 1 3
v 3 4 3
v -2 0 2
v -2 6 2
v -2 7 2
v 0 1 2
v 0 4 2
v 1 0 2
v 1 1 2
v 1 4 2
v 1 6 2
v 1 7 2
v 4 11 2
v 4 12 2
v 5 11 2
v 5 12 2
v -6 10 1
v -6 11 1
v -5 10 1
v -5 11 1
v -3 3 1
v -3 4 1
v -2 3 1
v -2 4 1
v 1 4 1
v 1 5 1
v 2 4 1
v 2 5 1
v 4 8 -1
v 4 9 -1
v 5 8 -1
v 5 9 -1
v -1 4 -2
v -1 5 -2
v 3 4 -2
v 3 5 -2
v 0 5 -4
v 0 6 -4
v 2 5 -4
v 2 6 -4
v -3 3 -0
v -3 4 -0
v -2 3 -0
v -2 4 -0
v 1 4 -0
v 1 5 -0
v 2 4 -0
v 2 5 -0
v 4 11 -0
v 4 12 -0
v 5 11 -0
v 5 12 -0
v -6 10 -1
v -6 11 -1
v -5 10 -1
v -5 11 -1
v -2 0 -1
v -2 6 -1
v -2 7 -1
v -1 1 -1
v -1 4 -1
v 1 0 -1
v 1 1 -1
v 1 4 -1
v 1 6 -1
v 1 7 -1
v -4 7 -3
v -4 8 -3
v -4 13 -3
v -4 14 -3
v 3 7 -3
v 3 8 -3
v 3 13 -3
v 3 14 -3
v 4 8 -3
v 4 9 -3
v 5 8 -3
v 5 9 -3
v -5 8 -4
v -5 13 -4
v -4 11 -4
v -4 12 -4
v -3 10 -4
v -3 11 -4
v -2 9 -4
v -2 10 -4
v -2 11 -4
v -1 11 -4
v -1 12 -4
v 0 11 -4
v 0 12 -4
v 1 9 -4
v 1 10 -4
v 1 11 -4
v 2 10 -4
v 2 11 -4
v 3 11 -4
v 3 12 -4
v 4 8 -4
v 4 13 -4
v -4 11 -5
v -4 12 -5
v -1 11 -5
v -1 12 -5
v 0 11 -5
v 0 12 -5
v 3 11 -5
v 3 12 -5
v 0 5 -6
v 0 6 -6
v 2 5 -6
v 2 6 -6
v -1 1 -7
v -1 5 -7
v 0 2 -7
v 0 4 -7
v 2 2 -7
v 2 4 -7
v 3 1 -7
v 3 5 -7
v -2 0 2
v 1 0 2
v -2 0 -1
v 1 0 -1
v 0 1 3
v 3 1 3
v 0 1 2
v 1 1 2
v -1 1 -1
v 1 1 -1
v -1 1 -7
v 3 1 -7
v -3 3 1
v -2 3 1
v -3 3 -0
v -2 3 -0
v -4 7 4
v 3 7 4
v -3 7 3
v 2 7 3
v -2 7 2
v 1 7 2
v -2 7 -1
v 1 7 -1
v -3 7 -2
v 2 7 -2
v -4 7 -3
v 3 7 -3
v -5 8 5
v -4 8 5
v 4 8 5
v -5 8 4
v -4 8 4
v 3 8 4
v 4 8 -1
v 5 8 -1
v -4 8 -3
v 3 8 -3
v 4 8 -3
v 5 8 -3
v -5 8 -4
v 4 8 -4
v -6 10 1
v -5 10 1
v -5 10 -0
v -6 10 -1
v -5 10 -1
v -1 11 6
v 1 11 6
v -1 11 5
v 0 11 5
v 1 11 5
v 4 11 2
v 5 11 2
v 4 11 -0
v 5 11 -0
v -4 11 -4
v -3 11 -4
v -2 11 -4
v -1 11 -4
v 0 11 -4
v 1 11 -4
v 2 11 -4
v 3 11 -4
v -4 11 -5
v -1 11 -5
v 0 11 -5
v 3 11 -5
v 0 4 3
v 3 4 3
v 0 4 2
v 1 4 2
v -3 4 1
v -2 4 1
v 1 4 1
v 2 4 1
v -3 4 -0
v -2 4 -0
v 1 4 -0
v 2 4 -0
v -1 4 -1
v 1 4 -1
v -1 4 -2
v 3 4 -2
v 1 5 1
v 2 5 1
v 1 5 -0
v 2 5 -0
v -1 5 -2
v 3 5 -2
v 0 5 -4
v 2 5 -4
v 0 5 -6
v 2 5 -6
v -1 5 -7
v 3 5 -7
v 0 6 -4
v 2 6 -4
v 0 6 -6
v 2 6 -6
v 4 9 -1
v 5 9 -1
v 4 9 -2
v 4 9 -3
v 5 9 -3
v -6 11 1
v -5 11 1
v -6 11 -1
v -5 11 -1
v -1 12 6
v 1 12 6
v -1 12 5
v 1 12 5
v 4 12 2
v 5 12 2
v 4 12 -0
v 5 12 -0
v -4 12 -4
v -1 12 -4
v 0 12 -4
v 3 12 -4
v -4 12 -5
v -1 12 -5
v 0 12 -5
v 3 12 -5
v -5 13 5
v 4 13 5
v -4 13 4
v 3 13 4
v -4 13 -3
v 3 13 -3
v -5 13 -4
v 4 13 -4
v -4 14 4
v 3 14 4
v 0 14 3
v 1 14 3
v -2 14 2
v -1 14 2
v 0 14 2
v 1 14 2
v -2 14 1
v -1 14 1
v 1 14 1
v 2 14 1
v -3 14 -0
v -2 14 -0
v -1 14 -0
v 1 14 -0
v 2 14 -0
v -3 14 -1
v -2 14 -1
v -1 14 -2
v 1 14 -2
v -4 14 -3
v 3 14 -3

# faces
f 3/3/1 2/3/1 1/3/1
f 4/3/1 2/3/1 3/3/1
f 8/2/1 6/2/1 5/2/1
f 9/3/1 7/3/1 6/3/1
f 9/2/1 6/2/1 8/2/1
f 10/3/1 7/3/1 9/3/1
f 11/3/1 7/3/1 10/3/1
f 12/3/1 9/3/1 8/3/1
f 12/3/1 10/3/1 9/3/1
f 13/3/1 10/3/1 12/3/1
f 14/2/1 11/2/1 10/2/1
f 14/3/1 10/3/1 13/3/1
f 15/3/1 7/3/1 11/3/1
f 15/2/1 11/2/1 14/2/1
f 16/3/1 7/3/1 15/3/1
f 17/3/1 7/3/1 16/3/1
f 18/3/1 7/3/1 17/3/1
f 19/2/1 13/2/1 12/2/1
f 19/3/1 12/3/1 8/3/1
f 20/3/1 14/3/1 13/3/1
f 20/2/1 13/2/1 19/2/1
f 21/3/1 14/3/1 20/3/1
f 22/3/1 14/3/1 21/3/1
f 23/3/1 17/3/1 16/3/1
f 24/2/1 18/2/1 17/2/1
f 24/3/1 17/3/1 23/3/1
f 25/3/1 7/3/1 18/3/1
f 25/2/1 18/2/1 24/2/1
f 26/2/1 22/2/1 21/2/1
f 26/3/1 20/3/1 19/3/1
f 26/3/1 21/3/1 20/3/1
f 27/3/1 24/3/1 23/3/1
f 27/2/1 22/2/1 26/2/1
f 27/3/1 23/3/1 22/3/1
f 27/3/1 25/3/1 24/3/1
f 28/3/1 19/3/1 8/3/1
f 28/3/1 26/3/1 19/3/1
f 28/3/1 27/3/1 26/3/1
f 29/3/1 25/3/1 27/3/1
f 29/3/1 27/3/1 28/3/1
f 29/3/1 7/3/1 25/3/1
f 32/3/1 31/3/1 30/3/1
f 33/3/1 31/3/1 32/3/1
f 36/2/1 35/2/1 34/2/1
f 37/2/1 35/2/1 36/2/1
f 40/3/1 39/3/1 38/3/1
f 41/3/1 39/3/1 40/3/1
f 44/1/1 43/1/1 42/1/1
f 45/1/1 43/1/1 44/1/1
f 48/1/1 47/1/1 46/1/1
f 49/1/1 47/1/1 48/1/1
f 50/1/1 48/1/1 46/1/1
f 51/1/1 47/1/1 49/1/1
f 52/1/1 50/1/1 46/1/1
f 52/1/1 51/1/1 50/1/1
f 53/1/1 47/1/1 51/1/1
f 53/1/1 51/1/1 52/1/1
f 54/2/1 53/2/1 52/2/1
f 55/2/1 53/2/1 54/2/1
f 58/4/1 57/4/1 56/4/1
f 59/4/1 57/4/1 58/4/1
f 60/4/1 57/4/1 59/4/1
f 61/4/1 57/4/1 60/4/1
f 64/3/1 63/3/1 62/3/1
f 65/3/1 63/3/1 64/3/1
f 68/4/1 67/4/1 66/4/1
f 69/4/1 67/4/1 68/4/1
f 72/4/1 71/4/1 70/4/1
f 73/4/1 71/4/1 72/4/1
f 76/2/1 75/2/1 74/2/1
f 77/2/1 75/2/1 76/2/1
f 78/2/2 79/2/2 80/2/2
f 80/2/2 79/2/2 81/2/2
f 82/1/2 83/1/2 84/1/2
f 84/1/2 83/1/2 85/1/2
f 86/1/2 87/1/2 90/1/2
f 88/1/2 89/1/2 91/1/2
f 86/1/2 90/1/2 92/1/2
f 90/1/2 91/1/2 92/1/2
f 91/1/2 89/1/2 93/1/2
f 92/1/2 91/1/2 93/1/2
f 92/2/2 93/2/2 94/2/2
f 94/2/2 93/2/2 95/2/2
f 96/3/2 97/3/2 98/3/2
f 98/3/2 97/3/2 99/3/2
f 100/1/2 101/1/2 102/1/2
f 102/1/2 101/1/2 103/1/2
f 104/4/2 105/4/2 106/4/2
f 106/4/2 105/4/2 107/4/2
f 108/4/2 109/4/2 110/4/2
f 110/4/2 109/4/2 111/4/2
f 111/4/2 109/4/2 112/4/2
f 112/4/2 109/4/2 113/4/2
f 114/3/2 115/3/2 116/3/2
f 116/3/2 115/3/2 117/3/2
f 118/2/2 119/2/2 120/2/2
f 120/2/2 119/2/2 121/2/2
f 122/3/2 123/3/2 124/3/2
f 124/3/2 123/3/2 125/3/2
f 126/3/2 127/3/2 130/3/2
f 130/3/2 127/3/2 131/3/2
f 131/3/2 127/3/2 132/3/2
f 128/3/2 129/3/2 134/3/2
f 126/3/2 130/3/2 135/3/2
f 130/2/2 131/2/2 135/2/2
f 131/3/2 132/3/2 136/3/2
f 135/2/2 131/2/2 136/2/2
f 132/2/2 133/2/2 137/2/2
f 136/3/2 132/3/2 137/3/2
f 133/3/2 134/3/2 138/3/2
f 137/2/2 133/2/2 138/2/2
f 135/3/2 136/3/2 139/3/2
f 136/3/2 137/3/2 139/3/2
f 137/3/2 138/3/2 139/3/2
f 126/3/2 135/3/2 139/3/2
f 139/3/2 138/3/2 140/3/2
f 140/3/2 138/3/2 141/3/2
f 141/3/2 138/3/2 142/3/2
f 142/3/2 138/3/2 143/3/2
f 138/3/2 134/3/2 144/3/2
f 143/3/2 138/3/2 144/3/2
f 134/3/2 129/3/2 144/3/2
f 139/2/2 140/2/2 145/2/2
f 140/3/2 141/3/2 146/3/2
f 145/2/2 140/2/2 146/2/2
f 146/3/2 141/3/2 147/3/2
f 142/3/2 143/3/2 148/3/2
f 143/2/2 144/2/2 149/2/2
f 148/3/2 143/3/2 149/3/2
f 144/3/2 129/3/2 150/3/2
f 149/2/2 144/2/2 150/2/2
f 146/3/2 147/3/2 151/3/2
f 148/3/2 149/3/2 151/3/2
f 149/3/2 150/3/2 151/3/2
f 147/3/2 148/3/2 151/3/2
f 145/3/2 146/3/2 151/3/2
f 150/3/2 129/3/2 152/3/2
f 151/3/2 150/3/2 152/3/2
f 153/3/2 154/3/2 155/3/2
f 155/3/2 154/3/2 156/3/2
f 157/3/2 158/3/2 159/3/2
f 159/3/2 158/3/2 160/3/2
f 163/3/3 162/3/3 161/3/3
f 164/3/3 162/3/3 163/3/3
f 168/2/3 166/2/3 165/2/3
f 169/3/3 167/3/3 166/3/3
f 169/2/3 166/2/3 168/2/3
f 170/3/3 169/3/3 168/3/3
f 170/3/3 167/3/3 169/3/3
f 171/3/3 167/3/3 170/3/3
f 172/3/3 167/3/3 171/3/3
f 173/3/3 167/3/3 172/3/3
f 174/3/3 170/3/3 168/3/3
f 174/2/3 171/2/3 170/2/3
f 175/3/3 172/3/3 171/3/3
f 175/2/3 171/2/3 174/2/3
f 176/2/3 173/2/3 172/2/3
f 176/3/3 172/3/3 175/3/3
f 177/3/3 167/3/3 173/3/3
f 177/2/3 173/2/3 176/2/3
f 178/3/3 176/3/3 175/3/3
f 178/3/3 175/3/3 174/3/3
f 178/3/3 177/3/3 176/3/3
f 179/3/3 167/3/3 177/3/3
f 179/3/3 177/3/3 178/3/3
f 180/3/3 178/3/3 174/3/3
f 181/3/3 178/3/3 180/3/3
f 182/3/3 180/3/3 174/3/3
f 182/2/3 181/2/3 180/2/3
f 183/2/3 181/2/3 182/2/3
f 184/3/3 167/3/3 179/3/3
f 185/3/3 183/3/3 182/3/3
f 185/3/3 184/3/3 183/3/3
f 186/3/3 167/3/3 184/3/3
f 186/3/3 184/3/3 185/3/3
f 187/3/3 185/3/3 182/3/3
f 187/3/3 174/3/3 168/3/3
f 187/3/3 182/3/3 174/3/3
f 188/2/3 186/2/3 185/2/3
f 188/3/3 185/3/3 187/3/3
f 189/3/3 167/3/3 186/3/3
f 189/2/3 186/2/3 188/2/3
f 190/3/3 167/3/3 189/3/3
f 195/3/3 192/3/3 191/3/3
f 196/3/3 192/3/3 195/3/3
f 197/3/3 194/3/3 193/3/3
f 198/3/3 194/3/3 197/3/3
f 201/4/3 200/4/3 199/4/3
f 202/4/3 200/4/3 201/4/3
f 206/1/3 204/1/3 203/1/3
f 207/1/3 204/1/3 206/1/3
f 208/1/3 206/1/3 203/1/3
f 209/1/3 206/1/3 208/1/3
f 210/1/3 204/1/3 207/1/3
f 211/2/3 205/2/3 204/2/3
f 211/1/3 204/1/3 210/1/3
f 212/2/3 205/2/3 211/2/3
f 215/3/3 214/3/3 213/3/3
f 216/3/3 214/3/3 215/3/3
f 219/3/3 218/3/3 217/3/3
f 220/3/3 218/3/3 219/3/3
f 223/1/3 222/1/3 221/1/3
f 224/1/3 222/1/3 223/1/3
f 227/1/3 226/1/3 225/1/3
f 228/1/3 226/1/3 227/1/3
f 231/3/3 230/3/3 229/3/3
f 232/3/3 230/3/3 231/3/3
f 235/4/3 234/4/3 233/4/3
f 236/4/3 234/4/3 235/4/3
f 239/4/3 238/4/3 237/4/3
f 240/4/3 238/4/3 239/4/3
f 241/1/4 242/1/4 243/1/4
f 243/1/4 242/1/4 244/1/4
f 245/1/4 246/1/4 247/1/4
f 247/1/4 246/1/4 248/1/4
f 249/3/4 250/3/4 251/3/4
f 251/3/4 250/3/4 252/3/4
f 253/3/4 254/3/4 255/3/4
f 255/3/4 254/3/4 256/3/4
f 257/1/4 258/1/4 260/1/4
f 260/1/4 258/1/4 261/1/4
f 257/1/4 260/1/4 262/1/4
f 262/1/4 260/1/4 263/1/4
f 261/1/4 258/1/4 264/1/4
f 258/2/4 259/2/4 265/2/4
f 264/1/4 258/1/4 265/1/4
f 265/2/4 259/2/4 266/2/4
f 267/3/4 268/3/4 271/3/4
f 271/3/4 268/3/4 272/3/4
f 269/3/4 270/3/4 273/3/4
f 273/3/4 270/3/4 274/3/4
f 275/3/4 276/3/4 277/3/4
f 277/3/4 276/3/4 278/3/4
f 279/3/4 280/3/4 281/3/4
f 281/3/4 280/3/4 282/3/4
f 279/3/4 281/3/4 283/3/4
f 283/3/4 281/3/4 284/3/4
f 279/3/4 283/3/4 285/3/4
f 283/5/4 284/5/4 286/5/4
f 285/3/4 283/3/4 286/3/4
f 286/5/4 284/5/4 287/5/4
f 286/3/4 287/3/4 288/3/4
f 282/3/4 280/3/4 289/3/4
f 286/3/4 288/3/4 290/3/4
f 288/3/4 289/3/4 290/3/4
f 289/3/4 280/3/4 291/3/4
f 290/3/4 289/3/4 291/3/4
f 285/2/4 286/2/4 292/2/4
f 279/3/4 285/3/4 292/3/4
f 286/3/4 290/3/4 293/3/4
f 292/2/4 286/2/4 293/2/4
f 293/3/4 290/3/4 294/3/4
f 292/3/4 293/3/4 295/3/4
f 293/5/4 294/5/4 295/5/4
f 295/5/4 294/5/4 296/5/4
f 295/3/4 296/3/4 297/3/4
f 291/3/4 280/3/4 298/3/4
f 279/3/4 292/3/4 299/3/4
f 297/3/4 298/3/4 299/3/4
f 295/3/4 297/3/4 299/3/4
f 292/3/4 295/3/4 299/3/4
f 298/3/4 280/3/4 300/3/4
f 299/3/4 298/3/4 300/3/4
f 301/2/4 302/2/4 303/2/4
f 303/2/4 302/2/4 304/2/4
f 305/2/4 306/2/4 307/2/4
f 307/2/4 306/2/4 308/2/4
f 309/4/4 310/4/4 311/4/4
f 311/4/4 310/4/4 312/4/4
f 313/4/4 314/4/4 315/4/4
f 315/4/4 314/4/4 316/4/4
f 313/4/4 315/4/4 317/4/4
f 315/5/4 316/5/4 317/5/4
f 316/4/4 314/4/4 318/4/4
f 317/5/4 316/5/4 318/5/4
f 313/4/4 317/4/4 319/4/4
f 317/4/4 318/4/4 319/4/4
f 318/4/4 314/4/4 320/4/4
f 319/4/4 318/4/4 320/4/4
f 323/1/5 322/1/5 321/1/5
f 324/1/5 322/1/5 323/1/5
f 327/4/5 326/4/5 325/4/5
f 328/4/5 326/4/5 327/4/5
f 330/4/5 326/4/5 328/4/5
f 331/4/5 330/4/5 329/4/5
f 332/4/5 326/4/5 330/4/5
f 332/4/5 330/4/5 331/4/5
f 335/1/5 334/1/5 333/1/5
f 336/1/5 334/1/5 335/1/5
f 339/3/5 338/3/5 337/3/5
f 340/3/5 338/3/5 339/3/5
f 341/2/5 340/2/5 339/2/5
f 342/2/5 340/2/5 341/2/5
f 343/2/5 341/2/5 339/2/5
f 344/2/5 340/2/5 342/2/5
f 345/3/5 339/3/5 337/3/5
f 345/2/5 344/2/5 343/2/5
f 345/2/5 343/2/5 339/2/5
f 346/2/5 340/2/5 344/2/5
f 346/2/5 344/2/5 345/2/5
f 346/3/5 338/3/5 340/3/5
f 347/3/5 345/3/5 337/3/5
f 347/3/5 346/3/5 345/3/5
f 348/3/5 338/3/5 346/3/5
f 348/3/5 346/3/5 347/3/5
f 352/2/5 350/2/5 349/2/5
f 353/3/5 351/3/5 350/3/5
f 353/2/5 350/2/5 352/2/5
f 354/3/5 351/3/5 353/3/5
f 355/3/5 351/3/5 354/3/5
f 357/3/5 353/3/5 352/3/5
f 358/3/5 356/3/5 355/3/5
f 358/3/5 355/3/5 354/3/5
f 359/3/5 356/3/5 358/3/5
f 360/3/5 356/3/5 359/3/5
f 361/3/5 357/3/5 352/3/5
f 361/3/5 358/3/5 357/3/5
f 361/3/5 359/3/5 358/3/5
f 362/3/5 359/3/5 361/3/5
f 365/3/5 364/3/5 363/3/5
f 366/3/5 365/3/5 363/3/5
f 367/3/5 365/3/5 366/3/5
f 370/3/5 369/3/5 368/3/5
f 371/3/5 369/3/5 370/3/5
f 372/3/5 369/3/5 371/3/5
f 375/3/5 374/3/5 373/3/5
f 376/3/5 374/3/5 375/3/5
f 385/2/5 378/2/5 377/2/5
f 385/2/5 379/2/5 378/2/5
f 385/2/5 380/2/5 379/2/5
f 386/2/5 380/2/5 385/2/5
f 387/2/5 384/2/5 383/2/5
f 387/2/5 383/2/5 382/2/5
f 387/2/5 382/2/5 381/2/5
f 388/2/5 384/2/5 387/2/5
f 389/4/6 390/4/6 391/4/6
f 391/4/6 390/4/6 392/4/6
f 392/4/6 390/4/6 395/4/6
f 395/4/6 390/4/6 396/4/6
f 393/1/6 394/1/6 397/1/6
f 397/1/6 394/1/6 398/1/6
f 396/4/6 390/4/6 400/4/6
f 399/4/6 400/4/6 402/4/6
f 401/4/6 402/4/6 403/4/6
f 400/4/6 390/4/6 404/4/6
f 403/4/6 402/4/6 404/4/6
f 402/4/6 400/4/6 404/4/6
f 405/1/6 406/1/6 407/1/6
f 407/1/6 406/1/6 408/1/6
f 409/4/6 410/4/6 411/4/6
f 411/4/6 410/4/6 412/4/6
f 409/4/6 411/4/6 413/4/6
f 412/4/6 410/4/6 414/4/6
f 409/4/6 413/4/6 415/4/6
f 413/4/6 414/4/6 415/4/6
f 414/4/6 410/4/6 416/4/6
f 415/4/6 414/4/6 416/4/6
f 417/4/6 418/4/6 419/4/6
f 419/4/6 418/4/6 420/4/6
f 421/3/6 422/3/6 423/3/6
f 423/3/6 422/3/6 424/3/6
f 424/3/6 422/3/6 425/3/6
f 426/3/6 427/3/6 428/3/6
f 428/3/6 427/3/6 429/3/6
f 430/3/6 431/3/6 432/3/6
f 432/3/6 431/3/6 433/3/6
f 434/3/6 435/3/6 436/3/6
f 436/3/6 435/3/6 437/3/6
f 438/2/6 439/2/6 442/2/6
f 442/2/6 439/2/6 443/2/6
f 440/2/6 441/2/6 444/2/6
f 444/2/6 441/2/6 445/2/6
f 446/3/6 447/3/6 448/3/6
f 448/3/6 447/3/6 449/3/6
f 446/3/6 448/3/6 450/3/6
f 449/3/6 447/3/6 451/3/6
f 446/3/6 450/3/6 452/3/6
f 450/3/6 451/3/6 452/3/6
f 451/3/6 447/3/6 453/3/6
f 452/3/6 451/3/6 453/3/6
f 454/3/6 455/3/6 456/3/6
f 456/3/6 455/3/6 457/3/6
f 454/3/6 456/3/6 458/3/6
f 458/3/6 456/3/6 459/3/6
f 456/2/6 457/2/6 460/2/6
f 459/3/6 456/3/6 460/3/6
f 457/3/6 455/3/6 461/3/6
f 460/2/6 457/2/6 461/2/6
f 458/2/6 459/2/6 462/2/6
f 454/3/6 458/3/6 462/3/6
f 459/3/6 460/3/6 463/3/6
f 462/2/6 459/2/6 463/2/6
f 460/3/6 461/3/6 463/3/6
f 461/3/6 455/3/6 464/3/6
f 463/3/6 461/3/6 464/3/6
f 464/3/6 455/3/6 465/3/6
f 454/3/6 462/3/6 466/3/6
f 462/3/6 463/3/6 466/3/6
f 463/3/6 464/3/6 466/3/6
f 466/3/6 464/3/6 467/3/6
f 467/3/6 464/3/6 468/3/6
f 464/2/6 465/2/6 469/2/6
f 468/3/6 464/3/6 469/3/6
f 465/3/6 455/3/6 470/3/6
f 469/2/6 465/2/6 470/2/6
f 454/3/6 466/3/6 471/3/6
f 466/2/6 467/2/6 471/2/6
f 467/3/6 468/3/6 472/3/6
f 471/2/6 467/2/6 472/2/6
f 468/2/6 469/2/6 473/2/6
f 472/3/6 468/3/6 473/3/6
f 471/3/6 472/3/6 473/3/6
f 469/3/6 470/3/6 474/3/6
f 473/2/6 469/2/6 474/2/6
f 471/3/6 473/3/6 475/3/6
f 454/3/6 471/3/6 475/3/6
f 473/3/6 474/3/6 475/3/6
f 474/3/6 470/3/6 476/3/6
f 475/3/6 474/3/6 476/3/6
f 470/3/6 455/3/6 476/3/6
